<mxfile host="app.diagrams.net" agent="Mozilla/5.0 (X11; Linux x86_64) AppleWebKit/537.36 (KHTML, like Gecko) Chrome/130.0.0.0 Safari/537.36" version="24.9.0">
  <diagram name="Page-1" id="OB7x57EMR4XSvcVudERQ">
    <mxGraphModel dx="1261" dy="731" grid="1" gridSize="10" guides="1" tooltips="1" connect="1" arrows="1" fold="1" page="1" pageScale="1" pageWidth="850" pageHeight="1100" math="0" shadow="0">
      <root>
        <mxCell id="0" />
        <mxCell id="1" parent="0" />
        <mxCell id="uyGpBfKp8dQG4E25M8nu-17" value="Vertical Container" style="swimlane;whiteSpace=wrap;html=1;" vertex="1" parent="1">
          <mxGeometry x="80" y="150" width="720" height="510" as="geometry" />
        </mxCell>
        <mxCell id="uyGpBfKp8dQG4E25M8nu-5" style="edgeStyle=orthogonalEdgeStyle;rounded=0;orthogonalLoop=1;jettySize=auto;html=1;entryX=0.5;entryY=0;entryDx=0;entryDy=0;" edge="1" parent="uyGpBfKp8dQG4E25M8nu-17" source="uyGpBfKp8dQG4E25M8nu-2" target="uyGpBfKp8dQG4E25M8nu-3">
          <mxGeometry relative="1" as="geometry" />
        </mxCell>
        <mxCell id="uyGpBfKp8dQG4E25M8nu-2" value="Frontend:&lt;div&gt;React 19&lt;/div&gt;&lt;div&gt;ApexChart&lt;/div&gt;&lt;div&gt;MUI&lt;/div&gt;" style="rounded=1;whiteSpace=wrap;html=1;" vertex="1" parent="uyGpBfKp8dQG4E25M8nu-17">
          <mxGeometry x="263.5" y="40" width="185" height="79.5" as="geometry" />
        </mxCell>
        <mxCell id="uyGpBfKp8dQG4E25M8nu-11" style="edgeStyle=orthogonalEdgeStyle;rounded=0;orthogonalLoop=1;jettySize=auto;html=1;exitX=1;exitY=0.5;exitDx=0;exitDy=0;entryX=1;entryY=0.5;entryDx=0;entryDy=0;" edge="1" parent="uyGpBfKp8dQG4E25M8nu-17" source="uyGpBfKp8dQG4E25M8nu-3" target="uyGpBfKp8dQG4E25M8nu-2">
          <mxGeometry relative="1" as="geometry">
            <Array as="points">
              <mxPoint x="450" y="325" />
              <mxPoint x="510" y="325" />
              <mxPoint x="510" y="80" />
            </Array>
          </mxGeometry>
        </mxCell>
        <mxCell id="uyGpBfKp8dQG4E25M8nu-3" value="Backend:&lt;div&gt;Flask&lt;/div&gt;" style="rounded=1;whiteSpace=wrap;html=1;" vertex="1" parent="uyGpBfKp8dQG4E25M8nu-17">
          <mxGeometry x="260" y="310" width="190" height="60" as="geometry" />
        </mxCell>
        <mxCell id="uyGpBfKp8dQG4E25M8nu-6" value="Websocket" style="text;html=1;align=center;verticalAlign=middle;resizable=0;points=[];autosize=1;strokeColor=none;fillColor=none;" vertex="1" parent="uyGpBfKp8dQG4E25M8nu-17">
          <mxGeometry x="350" y="180" width="80" height="30" as="geometry" />
        </mxCell>
        <mxCell id="uyGpBfKp8dQG4E25M8nu-10" style="edgeStyle=orthogonalEdgeStyle;rounded=0;orthogonalLoop=1;jettySize=auto;html=1;entryX=0.5;entryY=1;entryDx=0;entryDy=0;" edge="1" parent="uyGpBfKp8dQG4E25M8nu-17" source="uyGpBfKp8dQG4E25M8nu-9" target="uyGpBfKp8dQG4E25M8nu-3">
          <mxGeometry relative="1" as="geometry" />
        </mxCell>
        <mxCell id="uyGpBfKp8dQG4E25M8nu-9" value="" style="outlineConnect=0;dashed=0;verticalLabelPosition=bottom;verticalAlign=top;align=center;html=1;shape=mxgraph.aws3.redis;fillColor=#2E73B8;gradientColor=none;" vertex="1" parent="uyGpBfKp8dQG4E25M8nu-17">
          <mxGeometry x="325" y="419" width="60" height="63" as="geometry" />
        </mxCell>
        <mxCell id="uyGpBfKp8dQG4E25M8nu-12" value="Auth" style="text;html=1;align=center;verticalAlign=middle;resizable=0;points=[];autosize=1;strokeColor=none;fillColor=none;" vertex="1" parent="uyGpBfKp8dQG4E25M8nu-17">
          <mxGeometry x="510" y="170" width="50" height="30" as="geometry" />
        </mxCell>
        <mxCell id="uyGpBfKp8dQG4E25M8nu-14" style="edgeStyle=orthogonalEdgeStyle;rounded=0;orthogonalLoop=1;jettySize=auto;html=1;entryX=0;entryY=0.5;entryDx=0;entryDy=0;" edge="1" parent="uyGpBfKp8dQG4E25M8nu-17" source="uyGpBfKp8dQG4E25M8nu-13" target="uyGpBfKp8dQG4E25M8nu-3">
          <mxGeometry relative="1" as="geometry" />
        </mxCell>
        <mxCell id="uyGpBfKp8dQG4E25M8nu-13" value="" style="dashed=0;outlineConnect=0;html=1;align=center;labelPosition=center;verticalLabelPosition=bottom;verticalAlign=top;shape=mxgraph.webicons.json;gradientColor=#DFDEDE" vertex="1" parent="uyGpBfKp8dQG4E25M8nu-17">
          <mxGeometry x="130" y="314.4" width="52.4" height="51.2" as="geometry" />
        </mxCell>
        <mxCell id="uyGpBfKp8dQG4E25M8nu-15" value="" style="image;sketch=0;aspect=fixed;html=1;points=[];align=center;fontSize=12;image=img/lib/mscae/Docker.svg;" vertex="1" parent="uyGpBfKp8dQG4E25M8nu-17">
          <mxGeometry x="50" y="59.5" width="50" height="41" as="geometry" />
        </mxCell>
      </root>
    </mxGraphModel>
  </diagram>
</mxfile>
